<?xml version="1.0" standalone="no"?>
<!DOCTYPE svg PUBLIC "-//W3C//DTD SVG 20010904//EN"
 "http://www.w3.org/TR/2001/REC-SVG-20010904/DTD/svg10.dtd">
<svg version="1.0" xmlns="http://www.w3.org/2000/svg"
 width="500.000000pt" height="500.000000pt" viewBox="0 0 500.000000 500.000000"
 preserveAspectRatio="xMidYMid meet">

<g transform="translate(0.000000,500.000000) scale(0.100000,-0.100000)"
fill="#000000" stroke="none">
<path d="M2825 4893 c-25 -10 -79 -16 -145 -17 l-105 -2 -64 -43 c-35 -24 -96
-59 -137 -77 -86 -40 -104 -62 -104 -127 0 -54 12 -83 46 -112 34 -29 77 -152
65 -185 -5 -14 -26 -72 -46 -130 -20 -58 -51 -132 -67 -165 -24 -45 -32 -78
-36 -132 -3 -53 -8 -73 -18 -73 -19 0 -19 -79 0 -105 7 -11 16 -37 20 -59 4
-21 17 -58 28 -81 l21 -43 -28 -77 c-22 -60 -26 -86 -21 -123 7 -49 68 -182
99 -216 39 -42 130 -172 144 -206 8 -19 28 -48 45 -63 17 -15 28 -30 25 -33
-10 -10 -231 -54 -267 -53 -19 0 -48 9 -65 19 -59 38 -99 51 -132 45 -39 -7
-41 -2 -10 34 12 15 31 54 41 87 10 32 27 82 37 109 10 28 19 61 19 73 0 25
-43 117 -60 127 -17 11 -11 -28 10 -63 26 -42 25 -60 -4 -162 -14 -47 -28 -97
-31 -112 -3 -16 -46 -69 -110 -133 -99 -101 -135 -145 -118 -145 4 0 25 21 48
47 l41 46 46 -11 c28 -7 72 -9 108 -5 l62 6 59 -62 c63 -65 91 -81 142 -81 44
1 137 40 186 80 40 31 43 32 111 25 48 -5 70 -11 70 -20 0 -16 18 -30 27 -21
10 9 -19 66 -33 66 -8 0 -14 5 -14 10 0 18 61 11 88 -11 33 -26 43 -6 10 21
-23 19 -23 19 -2 20 12 0 38 -13 59 -30 21 -16 42 -30 46 -30 15 0 10 29 -7
38 -25 14 -11 54 26 76 18 10 61 24 97 32 62 13 193 76 193 93 0 21 -18 17
-79 -15 -49 -26 -74 -34 -96 -30 -24 5 -42 -2 -90 -34 -33 -22 -66 -40 -72
-40 -7 0 -18 -9 -25 -20 -13 -21 -43 -27 -52 -11 -6 9 56 94 87 120 10 7 17
23 17 35 0 12 18 39 41 61 22 22 70 83 107 135 37 52 108 137 159 188 l93 92
0 69 c0 64 1 69 20 64 22 -6 27 -20 33 -101 4 -51 3 -54 -27 -69 -57 -29 -97
-64 -92 -81 3 -12 -13 -31 -49 -59 -36 -29 -52 -48 -49 -60 2 -12 -13 -30 -46
-56 -28 -20 -50 -43 -50 -49 0 -6 12 0 28 14 70 65 255 178 291 178 6 0 11 5
11 11 0 14 -30 4 -113 -38 -84 -42 -79 -27 9 28 43 27 64 47 64 60 0 26 24 34
68 23 34 -9 36 -11 37 -54 1 -25 12 -60 24 -80 29 -49 27 -58 -21 -70 -94 -24
-315 -106 -307 -115 3 -2 62 18 133 45 70 26 156 53 189 60 89 17 92 19 79 32
-21 21 -13 28 36 28 44 0 72 12 72 32 0 4 -26 8 -58 8 l-59 0 -20 48 c-12 26
-26 59 -31 74 -8 18 -22 30 -44 36 l-33 8 -3 78 c-2 43 1 83 6 89 5 7 15 30
22 52 7 22 25 63 40 90 l29 50 -22 85 c-23 87 -56 145 -89 156 -10 3 -18 14
-18 25 0 32 56 49 158 49 l88 0 58 70 c32 39 62 70 66 70 4 0 12 11 18 25 13
28 2 59 -42 120 -12 17 -43 66 -70 110 -63 106 -61 102 -91 162 -34 67 -102
142 -167 184 -51 33 -56 34 -218 45 -105 8 -179 18 -202 28 -46 20 -91 19
-143 -1z m164 -30 c59 -24 79 -27 197 -27 l130 -1 55 -35 c30 -19 56 -39 58
-44 2 -6 15 -21 28 -34 13 -13 38 -49 55 -80 17 -32 73 -128 125 -214 51 -87
93 -164 93 -173 0 -8 -26 -41 -57 -74 l-58 -60 -109 -6 -108 -7 7 43 c4 24 9
46 10 47 8 8 86 14 110 8 22 -6 25 -9 15 -21 -7 -8 -22 -15 -34 -15 -29 0 -52
-15 -37 -24 17 -11 110 23 121 44 12 23 4 48 -18 54 -41 11 -115 17 -141 11
-24 -5 -29 -13 -40 -58 -19 -86 -61 -187 -83 -198 -30 -16 -62 -4 -99 38 -73
84 -230 154 -396 175 -109 14 -236 -2 -365 -46 -116 -39 -114 -41 -68 86 17
45 30 98 30 117 0 41 20 68 93 125 51 40 59 61 27 69 -11 3 -20 14 -20 25 0
11 -7 25 -15 32 -12 10 -15 10 -15 -4 0 -44 -35 7 -42 62 -4 28 -22 30 -26 4
-4 -27 49 -111 71 -112 12 0 17 -8 16 -27 0 -21 -14 -40 -52 -72 -46 -39 -52
-42 -58 -25 -4 11 -8 37 -8 60 -1 53 -18 101 -38 108 -24 9 -26 1 -12 -38 7
-20 10 -39 6 -43 -15 -15 -29 18 -34 80 l-6 64 46 32 c25 17 49 31 54 31 4 0
44 23 88 52 78 50 82 52 160 54 44 1 92 3 106 3 15 1 46 10 70 21 59 26 90 25
168 -7z m-118 -688 c82 -17 191 -63 183 -76 -3 -5 5 -23 17 -40 22 -31 22 -31
1 -20 -27 14 -39 14 -24 -1 7 -7 12 -20 12 -29 0 -9 7 -20 16 -23 8 -3 12 -11
8 -17 -4 -7 4 -20 17 -30 15 -11 19 -19 10 -19 -11 0 -10 -4 3 -19 13 -15 14
-20 4 -24 -9 -3 -8 -9 7 -21 27 -21 52 -22 35 -1 -10 12 -9 15 7 15 14 0 22
12 32 45 7 26 18 44 25 42 6 -2 34 4 62 15 39 14 58 16 78 8 14 -5 26 -11 26
-13 0 -2 -21 -4 -47 -5 -35 -2 -53 -8 -65 -23 -22 -26 -24 -95 -3 -103 17 -6
44 -66 37 -83 -7 -22 -22 -14 -22 11 0 13 -7 29 -15 36 -13 11 -14 8 -9 -21 9
-53 12 -59 32 -59 36 0 46 25 32 78 -8 26 -19 51 -27 55 -17 10 -16 37 1 60 9
11 27 17 54 17 49 0 54 -8 72 -102 10 -57 10 -71 -3 -95 -79 -151 -80 -153
-104 -153 -18 0 -28 11 -46 53 -52 116 -64 194 -42 265 5 14 3 22 -4 22 -6 0
-11 -6 -11 -13 0 -8 -7 -29 -16 -46 -12 -23 -15 -46 -10 -77 6 -49 51 -170 71
-194 23 -28 27 -77 10 -136 -12 -43 -30 -71 -78 -123 -35 -36 -92 -104 -127
-151 -118 -155 -236 -254 -361 -300 -32 -12 -56 -26 -53 -31 9 -16 -25 -10
-66 11 -22 11 -46 20 -55 20 -21 0 -19 28 3 32 12 2 4 12 -31 36 -53 37 -184
224 -220 315 -27 69 -27 175 -1 237 l20 44 -23 70 c-13 39 -23 92 -23 120 l0
49 65 -7 c63 -6 79 0 52 22 -6 6 -24 13 -40 16 -15 3 -39 8 -53 12 -27 5 -27
5 -21 77 9 109 29 157 80 189 60 37 257 98 257 79 0 -4 -18 -24 -40 -46 -56
-55 -40 -57 19 -2 37 35 58 47 92 51 24 3 55 7 69 10 48 7 59 6 131 -9z m248
-114 c19 -15 32 -33 30 -40 -3 -7 -21 5 -44 29 -45 46 -36 53 14 11z m-289
-1200 c-29 -33 -69 -69 -89 -78 -20 -10 -40 -28 -46 -40 -7 -16 -18 -23 -38
-23 -27 0 -28 2 -25 43 l3 42 50 -3 c48 -3 49 -3 32 16 -17 19 -17 20 0 25 10
4 50 24 88 46 39 21 72 37 74 36 2 -2 -20 -31 -49 -64z m-683 -54 c12 -6 40
-25 61 -40 l39 -28 84 15 c46 8 113 22 149 30 73 18 120 20 120 7 0 -5 -24
-15 -52 -21 -107 -25 -151 -52 -112 -67 21 -8 -1 -23 -34 -23 -13 0 -20 -4
-17 -10 18 -28 135 16 135 51 0 19 59 44 72 31 17 -17 -4 -38 -75 -74 -107
-55 -126 -60 -182 -53 -46 6 -56 13 -128 86 -79 80 -100 93 -95 62 3 -15 -5
-18 -54 -18 -65 0 -79 13 -31 29 18 6 38 17 45 24 15 15 47 15 75 -1z"/>
<path d="M2797 4773 c-5 -8 18 -112 28 -121 2 -3 9 7 14 22 17 42 -22 132 -42
99z"/>
<path d="M2998 4752 c-14 -17 -34 -54 -43 -82 -9 -27 -20 -50 -24 -50 -5 0
-11 25 -14 56 -3 31 -8 58 -11 61 -13 14 -26 -13 -26 -56 0 -26 -5 -62 -11
-79 -15 -45 -6 -63 14 -27 l16 30 1 -27 c0 -16 4 -28 9 -28 14 0 41 48 57 100
8 27 26 63 40 79 14 17 24 36 22 42 -2 7 -16 -2 -30 -19z"/>
<path d="M2627 4753 c-19 -18 -1 -51 63 -114 38 -38 72 -69 75 -69 13 0 -9 47
-45 95 -46 61 -84 98 -93 88z"/>
<path d="M2517 4733 c-15 -26 -16 -70 -3 -88 15 -19 15 -18 16 15 0 19 3 45 6
58 6 20 -9 32 -19 15z"/>
<path d="M3200 4657 c-24 -12 -55 -31 -67 -41 -43 -37 -20 -51 24 -16 40 31
40 15 -1 -34 -43 -53 -46 -81 -10 -90 15 -4 27 -6 28 -4 31 50 48 72 89 116
54 56 54 64 1 31 -41 -25 -45 -14 -6 18 23 19 25 24 12 33 -19 12 -17 13 -70
-13z"/>
<path d="M3343 4621 c-43 -31 -133 -130 -133 -146 0 -5 25 18 55 51 52 59 56
62 110 66 67 6 90 22 61 44 -29 21 -48 17 -93 -15z"/>
<path d="M2630 4581 c0 -24 18 -37 32 -23 8 8 7 16 -2 27 -17 21 -30 19 -30
-4z"/>
<path d="M2567 4568 c-3 -12 -4 -25 -1 -30 9 -13 34 12 34 33 0 26 -26 24 -33
-3z"/>
<path d="M2950 4569 c-7 -11 -10 -23 -7 -25 8 -8 32 6 45 26 11 17 10 20 -8
20 -10 0 -24 -9 -30 -21z"/>
<path d="M2830 4559 c0 -5 5 -7 10 -4 6 3 10 8 10 11 0 2 -4 4 -10 4 -5 0 -10
-5 -10 -11z"/>
<path d="M3050 4550 c-6 -12 -21 -20 -38 -21 -26 0 -25 -1 8 -13 39 -15 60 -6
60 25 0 27 -17 32 -30 9z"/>
<path d="M3380 4563 c-20 -8 -122 -86 -140 -107 -10 -13 -10 -20 -2 -28 12
-12 24 -10 125 19 35 10 16 -14 -28 -35 -25 -12 -45 -29 -45 -37 0 -13 12 -14
73 -9 39 3 77 7 84 9 6 2 24 0 40 -5 28 -8 28 -8 2 -9 -14 -1 -34 -8 -45 -16
-17 -14 -12 -15 61 -9 67 4 77 3 60 -7 -11 -7 -58 -15 -105 -17 -106 -5 -131
-22 -34 -22 66 0 116 11 187 39 l28 11 -31 31 -31 31 -99 -4 c-55 -2 -100 -1
-100 3 0 8 63 34 108 44 35 7 41 25 17 45 -12 10 -40 11 -106 7 -51 -4 -88 -3
-85 2 3 5 26 18 51 30 53 25 65 53 15 34z"/>
<path d="M3552 4283 c2 -12 17 -20 46 -26 49 -10 61 -4 46 21 -7 11 -27 18
-53 20 -36 3 -42 1 -39 -15z"/>
<path d="M3310 4245 c13 -14 28 -25 34 -25 6 0 -1 11 -16 25 -15 14 -30 25
-34 25 -4 0 3 -11 16 -25z"/>
<path d="M3255 4220 c3 -5 8 -10 11 -10 2 0 4 5 4 10 0 6 -5 10 -11 10 -5 0
-7 -4 -4 -10z"/>
<path d="M3280 4100 c0 -5 5 -10 10 -10 6 0 10 5 10 10 0 6 -4 10 -10 10 -5 0
-10 -4 -10 -10z"/>
<path d="M2630 4129 c-56 -31 -110 -76 -110 -92 0 -5 18 7 40 26 38 32 85 60
123 71 16 5 25 26 10 26 -5 0 -33 -14 -63 -31z"/>
<path d="M2630 4090 c-37 -19 -136 -118 -127 -126 3 -3 28 20 57 50 29 31 68
61 86 68 19 7 34 16 34 20 0 12 -11 9 -50 -12z"/>
<path d="M2656 4047 c-56 -30 -92 -66 -84 -86 3 -9 28 1 103 43 44 24 107 21
123 -5 10 -16 17 -18 25 -10 8 8 6 15 -5 28 -8 10 -18 26 -22 37 -5 14 -12 17
-32 12 -14 -4 -31 -2 -38 3 -8 6 -30 0 -70 -22z"/>
<path d="M2497 4013 c-4 -3 -7 -11 -7 -17 0 -6 5 -5 12 2 6 6 9 14 7 17 -3 3
-9 2 -12 -2z"/>
<path d="M3367 3896 c-3 -8 -2 -30 4 -48 16 -56 11 -94 -16 -126 -26 -31 -31
-57 -16 -81 7 -11 11 -10 20 7 6 11 11 32 11 45 0 13 9 36 20 50 22 28 25 63
10 119 -12 42 -25 55 -33 34z"/>
<path d="M2664 3826 c-34 -15 -64 -51 -64 -76 0 -9 9 -4 24 14 13 17 37 35 54
40 18 6 32 15 33 21 1 15 -13 15 -47 1z"/>
<path d="M2864 3805 c-18 -14 -18 -14 7 -15 15 0 32 7 39 15 10 12 9 15 -7 15
-10 0 -28 -7 -39 -15z"/>
<path d="M2682 3758 c-22 -18 -48 -38 -58 -44 -11 -7 -16 -15 -11 -20 4 -4 24
7 45 25 20 18 49 37 65 44 15 6 27 15 27 19 0 17 -30 6 -68 -24z"/>
<path d="M2531 3757 c-15 -19 -5 -60 20 -83 29 -26 33 -11 12 46 -16 43 -21
49 -32 37z"/>
<path d="M2866 3731 c-7 -10 17 -21 45 -21 26 0 24 16 -3 24 -31 8 -36 8 -42
-3z"/>
<path d="M2407 3714 c5 -14 1 -15 -26 -9 -37 8 -81 -15 -81 -43 1 -16 1 -16
11 1 7 11 22 17 47 17 60 0 88 -44 35 -55 -44 -9 -78 -29 -81 -49 -3 -16 1
-17 38 -11 l43 7 -8 -28 c-4 -16 -8 -56 -9 -89 -1 -33 -5 -67 -11 -75 -19 -29
-35 -62 -35 -74 1 -15 70 -89 77 -82 3 3 -2 17 -11 30 -24 37 -20 46 18 46 32
0 37 4 61 55 27 55 55 73 55 35 0 -24 10 -24 75 -5 29 9 65 30 86 51 31 30 43
35 88 36 42 1 51 5 49 17 -3 12 -13 15 -41 13 -21 -2 -37 2 -37 8 0 5 -15 10
-34 10 -19 0 -38 5 -41 10 -3 6 -16 10 -28 10 -20 -1 -18 -4 13 -29 33 -28 34
-30 17 -49 -16 -18 -124 -48 -135 -38 -9 10 10 26 31 26 24 0 67 26 67 39 0 5
-9 19 -20 32 l-20 24 6 -39 c6 -36 5 -39 -15 -33 -12 3 -37 1 -55 -4 -28 -8
-33 -13 -28 -31 5 -20 3 -20 -44 -13 -74 11 -79 32 -39 147 27 78 31 109 15
139 -13 23 -42 26 -33 3z m43 -328 c0 -23 -51 -79 -62 -68 -17 17 -4 56 22 69
32 16 40 16 40 -1z"/>
<path d="M2741 3716 c-7 -8 -23 -17 -36 -20 -14 -4 -25 -10 -25 -15 0 -13 60
5 78 23 8 8 10 16 4 20 -5 3 -15 0 -21 -8z"/>
<path d="M2860 3505 c21 -22 25 -39 30 -115 2 -30 30 23 30 56 0 38 -34 84
-62 84 -21 0 -21 0 2 -25z"/>
<path d="M2722 3425 c-18 -13 -67 -38 -110 -55 -88 -36 -182 -96 -182 -116 0
-22 16 -16 34 11 17 25 86 64 187 104 31 12 71 35 90 51 41 35 28 38 -19 5z"/>
<path d="M3122 3373 c-7 -12 -12 -29 -12 -38 0 -31 -32 -72 -82 -104 -61 -40
-56 -53 6 -17 62 36 113 117 104 163 -4 16 -5 16 -16 -4z"/>
<path d="M2450 3143 c0 -68 11 -95 54 -128 50 -38 112 -44 168 -16 51 25 176
136 166 146 -4 4 -38 -20 -74 -55 -37 -34 -82 -69 -100 -76 -92 -39 -167 1
-180 94 -3 29 -13 60 -20 69 -12 16 -13 12 -14 -34z"/>
<path d="M1463 3673 c-10 -16 -20 -30 -24 -33 -13 -11 -30 -51 -24 -59 3 -5 0
-11 -6 -13 -6 -2 -11 -40 -12 -93 -1 -68 3 -98 16 -122 9 -18 17 -39 17 -48 0
-29 -39 7 -54 50 -43 119 -58 152 -77 168 -12 9 -25 17 -29 17 -17 0 -23 -95
-11 -154 13 -60 83 -221 99 -227 6 -2 27 -26 49 -54 38 -49 72 -139 77 -209 2
-17 11 -62 21 -101 l18 -70 -67 -68 c-36 -38 -66 -75 -66 -83 0 -27 18 -14 49
35 30 46 81 92 81 73 0 -4 -16 -23 -35 -42 -36 -35 -47 -64 -20 -54 12 5 15
-2 15 -29 0 -20 4 -38 9 -42 15 -8 31 29 31 70 0 20 9 54 21 76 19 38 19 43 4
94 -8 29 -22 91 -31 136 -19 102 -48 181 -76 205 -38 34 -100 125 -131 193
-22 49 -31 85 -35 144 -3 49 -1 77 6 77 10 0 42 -70 42 -93 0 -7 9 -23 20 -35
33 -35 42 -70 22 -81 -14 -9 -13 -10 9 -11 28 0 69 -37 69 -62 0 -9 -7 -21
-15 -28 -9 -7 -13 -15 -11 -17 3 -3 15 4 27 16 17 15 36 21 70 21 26 0 51 5
54 10 4 6 -10 10 -34 10 -23 0 -41 4 -41 8 0 5 -14 30 -32 57 -29 44 -33 57
-36 142 -4 86 -2 99 23 156 30 67 40 78 63 70 17 -7 12 -101 -7 -112 -8 -6 -8
-15 0 -40 6 -18 9 -52 7 -76 -4 -31 -1 -48 10 -59 8 -8 27 -37 41 -63 24 -44
30 -48 66 -51 23 -2 54 -14 73 -29 18 -14 36 -22 39 -19 11 11 -19 35 -65 52
-71 26 -82 41 -94 126 -10 79 -7 93 38 156 9 12 12 22 6 22 -17 0 -59 -81 -67
-127 -4 -28 -12 -43 -22 -43 -13 0 -14 19 -7 136 5 111 4 138 -7 145 -24 15
-38 10 -56 -18z"/>
<path d="M1779 3685 c-55 -20 -114 -52 -128 -69 -18 -22 -6 -20 27 4 34 25
143 70 154 64 13 -8 9 -38 -7 -61 -9 -13 -33 -28 -54 -34 -28 -8 -37 -16 -34
-28 2 -9 -10 -34 -27 -55 -16 -22 -28 -46 -26 -55 2 -9 7 -34 10 -56 14 -90
17 -96 34 -86 8 5 25 35 37 67 l21 59 63 -3 c65 -2 104 -19 173 -74 39 -30 47
-15 11 19 -67 63 -105 81 -181 89 l-73 7 -16 -42 c-18 -46 -27 -50 -43 -22
-20 38 -9 59 65 136 41 42 75 83 75 90 0 26 -20 65 -32 64 -7 0 -29 -6 -49
-14z"/>
<path d="M1830 3361 c0 -6 5 -13 10 -16 15 -9 12 -45 -4 -51 -12 -5 -11 -11 4
-37 10 -18 21 -49 24 -69 7 -39 33 -66 86 -88 22 -9 39 -29 60 -70 16 -31 35
-62 44 -69 14 -12 16 -10 16 8 0 12 -9 39 -19 59 -16 32 -17 42 -7 67 10 25
10 36 -2 65 -9 23 -12 53 -9 87 5 48 4 53 -14 53 -16 0 -19 -7 -19 -51 0 -27
5 -70 11 -95 16 -63 4 -72 -57 -41 -49 25 -49 25 -66 102 -24 104 -7 135 55
104 20 -10 21 -10 6 5 -9 9 -27 18 -40 18 -13 1 -33 8 -44 15 -23 15 -35 17
-35 4z"/>
<path d="M2060 3320 c0 -5 5 -10 10 -10 6 0 10 5 10 10 0 6 -4 10 -10 10 -5 0
-10 -4 -10 -10z"/>
<path d="M3243 3177 c-57 -25 -83 -44 -43 -33 70 21 68 14 -9 -33 -46 -28
-104 -67 -130 -88 -79 -63 -212 -185 -207 -190 2 -3 51 36 108 86 119 106 236
187 331 232 37 17 67 35 67 40 0 16 -64 9 -117 -14z"/>
<path d="M3562 3136 c-79 -39 -80 -60 -2 -64 30 -2 60 -8 67 -14 8 -6 16 -8
19 -5 8 7 -7 117 -15 115 -3 -1 -34 -15 -69 -32z"/>
<path d="M1540 3118 c17 -23 46 -49 64 -57 32 -15 78 -63 117 -122 22 -32 35
-18 19 21 -13 31 -82 100 -100 100 -6 0 -32 23 -59 50 -59 61 -82 66 -41 8z"/>
<path d="M1700 3134 l-35 -13 48 0 c33 -1 47 3 45 11 -6 17 -18 17 -58 2z"/>
<path d="M2070 3120 c0 -5 7 -10 15 -10 8 0 15 5 15 10 0 6 -7 10 -15 10 -8 0
-15 -4 -15 -10z"/>
<path d="M3129 2991 c-68 -29 -122 -61 -103 -61 6 0 44 15 85 33 41 19 85 38
99 45 21 9 22 11 5 11 -11 0 -50 -12 -86 -28z"/>
<path d="M1840 2860 c0 -16 33 -80 42 -80 14 0 9 23 -12 58 -20 32 -30 40 -30
22z"/>
<path d="M1775 2595 c-27 -13 -83 -31 -122 -40 -40 -9 -73 -21 -73 -25 0 -11
102 14 183 44 l67 25 -35 -51 c-30 -43 -45 -88 -30 -88 16 0 55 26 55 36 0 8
10 34 22 59 19 40 20 47 8 55 -19 12 -16 13 -75 -15z"/>
<path d="M1360 2498 c0 -52 11 -78 31 -78 26 0 27 70 1 93 -26 24 -32 21 -32
-15z"/>
<path d="M2375 2330 c-11 -18 -25 -241 -25 -415 0 -171 12 -288 32 -312 18
-22 56 -14 93 18 50 44 69 116 62 232 -6 88 -6 89 16 83 12 -3 27 -6 34 -6 8
0 11 -22 10 -68 -2 -79 14 -119 51 -129 37 -9 95 13 135 52 42 41 47 42 47 12
0 -31 27 -67 51 -67 47 0 144 69 189 135 57 83 33 88 -43 10 -29 -30 -58 -55
-65 -55 -35 0 -27 138 11 194 22 31 27 50 27 98 0 101 -53 172 -124 166 -40
-4 -45 -25 -53 -227 l-6 -164 -43 -45 c-56 -58 -68 -50 -62 44 6 92 -6 114
-63 114 -33 0 -39 -3 -39 -21 0 -20 -4 -21 -47 -15 -27 4 -56 9 -65 12 -25 7
-23 58 4 94 49 67 29 211 -36 251 -34 20 -81 25 -91 9z m116 -197 c-9 -16 -10
-16 -11 4 0 12 3 30 7 40 7 16 8 16 11 -4 2 -12 -1 -30 -7 -40z m478 -20 c-1
-10 -5 -29 -9 -43 -7 -21 -8 -19 -9 18 -1 23 4 42 9 42 6 0 10 -8 9 -17z
m-475 -293 c-4 -30 -10 -62 -15 -70 -10 -19 -12 107 -2 176 l7 49 8 -50 c4
-27 5 -75 2 -105z"/>
<path d="M3439 2203 c-1 -43 -4 -109 -8 -148 l-6 -70 -60 -6 c-49 -6 -64 -12
-87 -38 -30 -33 -37 -78 -16 -99 15 -15 92 -16 118 -2 16 8 19 5 25 -19 13
-59 110 -64 186 -10 23 16 29 17 29 5 0 -42 82 -62 128 -30 20 14 22 14 22 -1
0 -29 29 -73 53 -79 70 -17 150 50 186 157 24 71 26 97 7 97 -8 0 -18 -19 -25
-47 -14 -55 -57 -133 -73 -133 -7 0 -9 26 -4 85 7 82 6 86 -18 110 -18 18 -36
25 -64 25 l-40 0 -4 -55 c-5 -55 -29 -104 -57 -113 -10 -3 -12 13 -6 80 8 91
4 99 -47 112 -40 9 -54 -1 -56 -42 -4 -65 -13 -91 -39 -112 -14 -11 -29 -20
-34 -20 -18 0 -19 73 -2 205 10 78 16 151 13 164 -6 26 -62 61 -97 61 -22 0
-23 -4 -24 -77z m-52 -298 c-34 -30 -47 -32 -47 -6 0 22 13 29 50 30 l25 0
-28 -24z"/>
<path d="M1582 2230 c-67 -41 -132 -183 -175 -380 -41 -190 -41 -190 -17 -190
12 0 34 13 49 28 25 24 30 41 41 130 l13 102 54 0 53 0 0 -57 c0 -72 14 -125
40 -148 16 -14 24 -15 51 -6 52 18 71 39 57 65 -7 14 -11 85 -10 206 0 102 -4
199 -9 216 -17 54 -87 70 -147 34z m30 -148 c-4 -124 -4 -125 -60 -117 -26 4
-48 8 -49 9 -1 1 4 30 12 64 17 70 48 138 67 145 26 9 33 -15 30 -101z"/>
<path d="M1170 2223 c-34 -13 -40 -24 -25 -47 11 -17 12 -30 5 -56 -20 -69 38
-58 71 13 13 30 19 36 19 20 0 -12 -4 -33 -9 -46 -15 -40 16 -45 52 -9 55 55
33 145 -30 121 -15 -6 -31 -5 -43 1 -10 5 -20 10 -22 9 -2 0 -10 -3 -18 -6z"/>
<path d="M2630 2120 c-39 -39 -16 -93 40 -93 35 0 60 23 60 55 0 24 -35 58
-60 58 -11 0 -29 -9 -40 -20z"/>
<path d="M1792 2021 c-8 -4 -13 -11 -12 -15 1 -3 -1 -41 -5 -84 -7 -78 3 -128
28 -144 21 -13 82 -9 105 8 20 14 22 14 22 -1 0 -29 29 -73 53 -79 70 -17 150
50 186 157 24 71 26 97 7 97 -8 0 -18 -19 -25 -47 -14 -55 -57 -133 -73 -133
-7 0 -9 26 -4 85 7 82 6 86 -18 110 -18 18 -36 25 -64 25 l-40 0 -4 -55 c-5
-55 -29 -104 -57 -113 -10 -3 -12 13 -6 80 5 65 4 86 -6 95 -20 16 -72 24 -87
14z"/>
<path d="M1690 1425 l0 -95 60 0 c33 0 60 4 60 10 0 6 -22 10 -50 10 -49 0
-50 1 -50 29 0 28 3 30 43 33 23 2 42 8 42 13 0 6 -19 11 -42 13 -38 3 -43 6
-43 28 0 22 4 24 45 24 33 0 45 4 45 15 0 12 -13 15 -55 15 l-55 0 0 -95z"/>
<path d="M1930 1500 c-11 -11 -20 -23 -20 -28 0 -21 33 -50 69 -60 47 -14 58
-27 41 -47 -18 -21 -57 -18 -77 5 -19 22 -33 26 -33 10 0 -21 41 -50 71 -50
43 0 69 17 69 44 0 28 -24 50 -72 66 -46 14 -52 46 -11 56 20 5 30 2 44 -14
18 -23 39 -29 39 -12 0 21 -41 50 -70 50 -17 0 -39 -9 -50 -20z"/>
<path d="M2150 1505 c0 -10 10 -15 30 -15 l30 0 0 -80 c0 -64 3 -80 15 -80 12
0 15 16 15 80 l0 80 30 0 c20 0 30 5 30 15 0 12 -15 15 -75 15 -60 0 -75 -3
-75 -15z"/>
<path d="M2576 1505 c-3 -8 -15 -15 -26 -15 -11 0 -20 -7 -20 -15 0 -8 9 -15
20 -15 18 0 20 -7 20 -65 0 -51 3 -65 15 -65 12 0 15 17 15 89 0 84 -10 121
-24 86z"/>
<path d="M2737 1502 c-18 -19 -23 -42 -9 -42 4 0 13 9 20 20 24 38 81 14 67
-29 -3 -11 -28 -39 -56 -61 -27 -23 -49 -46 -49 -51 0 -5 29 -9 65 -9 37 0 65
4 65 10 0 6 -19 10 -41 10 l-42 0 42 45 c24 26 41 54 41 68 0 50 -70 76 -103
39z"/>
<path d="M2982 1455 c-18 -36 -32 -70 -32 -75 0 -6 20 -10 45 -10 38 0 45 -3
45 -20 0 -11 7 -20 15 -20 8 0 15 9 15 19 0 11 6 22 13 25 10 5 10 7 0 12 -7
3 -13 19 -13 35 0 19 -5 29 -15 29 -10 0 -15 -10 -15 -30 0 -27 -3 -30 -30
-30 -16 0 -30 3 -30 8 0 4 14 31 30 61 34 62 34 61 17 61 -7 0 -27 -29 -45
-65z"/>
<path d="M3212 1504 c-24 -17 -29 -43 -10 -62 9 -9 9 -15 0 -24 -19 -19 -15
-66 7 -78 29 -15 77 -12 95 6 19 18 20 38 5 66 -8 14 -8 23 0 31 16 16 13 35
-9 57 -24 24 -57 26 -88 4z m73 -34 c0 -18 -6 -26 -23 -28 -34 -5 -54 15 -41
40 7 13 19 18 37 16 21 -2 27 -8 27 -28z m11 -75 c8 -21 -14 -45 -41 -45 -27
0 -49 24 -41 45 3 9 18 15 41 15 23 0 38 -6 41 -15z"/>
<path d="M2400 1345 c0 -8 7 -15 15 -15 8 0 15 7 15 15 0 8 -7 15 -15 15 -8 0
-15 -7 -15 -15z"/>
<path d="M1530 1231 l0 -79 -50 -7 c-66 -9 -70 -35 -6 -35 l44 0 4 -152 c4
-158 11 -188 48 -208 48 -26 143 31 202 120 l17 25 0 -28 c1 -35 25 -83 46
-91 51 -19 129 10 199 75 41 37 46 39 46 20 0 -25 17 -62 34 -73 43 -29 87 15
111 110 9 40 21 72 25 72 4 0 10 -19 13 -41 10 -79 47 -73 61 9 3 22 16 48 31
62 22 20 25 21 31 6 4 -9 1 -59 -7 -112 -15 -112 -8 -147 33 -152 35 -4 105
32 146 75 l32 34 0 -126 c0 -159 12 -195 64 -195 44 0 78 30 72 63 -14 66 -16
102 -10 142 5 36 13 49 39 65 42 26 91 98 100 147 6 31 3 40 -16 55 -25 21
-52 16 -86 -15 l-23 -20 0 31 c0 41 -39 72 -91 72 -31 0 -38 -4 -37 -17 1 -10
0 -45 0 -77 -2 -56 -4 -61 -51 -107 -68 -69 -75 -66 -68 26 8 94 -3 121 -55
137 -32 9 -45 9 -72 -5 -19 -9 -37 -25 -41 -36 -8 -27 -25 -27 -25 -1 0 29
-32 42 -58 24 -20 -14 -22 -14 -22 1 0 27 -46 65 -80 65 -28 0 -30 -2 -30 -37
0 -70 -18 -109 -71 -157 -70 -63 -119 -73 -119 -25 0 13 7 19 21 19 70 0 116
82 69 125 -26 24 -110 16 -150 -13 -20 -15 -31 -18 -36 -11 -4 8 -10 5 -17 -7
-30 -56 -99 -153 -114 -158 -27 -11 -33 13 -33 152 0 97 3 134 13 137 6 2 29
6 50 10 55 9 50 35 -8 35 l-45 0 0 50 c0 67 -30 100 -90 100 l-40 0 0 -79z
m1270 -262 c0 -29 -27 -83 -52 -106 -21 -18 -21 -18 -14 12 10 42 46 115 57
115 5 0 9 -9 9 -21z m-820 -11 c0 -16 -31 -48 -47 -48 -16 0 -17 14 -3 41 12
21 50 26 50 7z"/>
<path d="M3277 1254 c-27 -15 -28 -16 -12 -34 16 -18 16 -39 -1 -83 -9 -24 23
-27 50 -6 14 11 30 35 36 52 9 30 9 29 7 -17 -1 -31 2 -51 10 -53 17 -6 61 40
69 73 9 36 -15 80 -42 76 -38 -5 -59 -5 -74 1 -8 3 -28 -1 -43 -9z"/>
<path d="M2934 1100 c-27 -11 -64 -57 -64 -80 0 -9 11 -39 25 -66 23 -45 24
-53 13 -96 -31 -123 67 -204 186 -154 63 26 60 91 -9 182 -24 32 -45 63 -45
67 0 10 107 4 133 -7 11 -5 17 -4 17 3 0 21 -70 42 -128 40 -53 -3 -55 -2 -73
32 -10 19 -18 46 -19 62 0 29 -3 30 -36 17z m72 -316 c9 -35 -7 -47 -34 -28
-17 12 -22 25 -22 62 l1 47 24 -28 c14 -15 28 -39 31 -53z"/>
</g>
</svg>
